Coordinates
version=1
nRows=54
nColumns=12
inDegrees=yes

Units are S.I. units (second, meters, Newtons, ...)
Angles are in degrees

endheader
time	SC_y	SC_z	SC_x	AC_y	AC_z	AC_x	GH_y	GH_z	GH_yy	EL_x	PS_y
       0.0              -47.85          9.476          62.36           69.2         -8.664        -0.1993         -109.7          43.77          16.74          38.11          13.65
   0.04055              -47.84          9.476          62.36           69.2         -8.665        -0.2012         -109.7          43.77          16.75          38.11          13.67
    0.0811              -47.84          9.477          62.36           69.2         -8.666        -0.2031         -109.6          43.77          16.75          38.12          13.69
    0.1217              -47.83          9.477          62.35          69.19         -8.667        -0.2052         -109.6          43.77          16.76          38.12          13.71
    0.1622              -47.82          9.478          62.35          69.19         -8.668        -0.2074         -109.6          43.77          16.76          38.13          13.73
    0.2028              -47.82          9.478          62.35          69.19         -8.669        -0.2097         -109.5          43.77          16.77          38.13          13.75
    0.2433              -47.81          9.479          62.35          69.19          -8.67        -0.2122         -109.5          43.77          16.78          38.14          13.77
    0.2839               -47.8           9.48          62.35          69.19         -8.671        -0.2149         -109.5          43.77          16.78          38.14           13.8
    0.3244               -47.8           9.48          62.35          69.18         -8.672        -0.2177         -109.4          43.77          16.79          38.15          13.83
     0.365              -47.79          9.481          62.34          69.18         -8.673        -0.2208         -109.4          43.77           16.8          38.15          13.85
    0.4055              -47.78          9.482          62.34          69.18         -8.675        -0.2241         -109.3          43.77          16.81          38.16          13.89
    0.4461              -47.77          9.483          62.34          69.18         -8.676        -0.2277         -109.3          43.77          16.82          38.17          13.92
    0.4866              -47.76          9.484          62.34          69.17         -8.678        -0.2315         -109.2          43.77          16.83          38.17          13.96
    0.5272              -47.75          9.485          62.33          69.17          -8.68        -0.2356         -109.1          43.77          16.84          38.18          13.99
    0.5677              -47.74          9.486          62.33          69.17         -8.682        -0.2401         -109.1          43.77          16.85          38.19          14.04
    0.6083              -47.72          9.488          62.33          69.16         -8.684        -0.2449         -109.0          43.77          16.86           38.2          14.08
    0.6488              -47.71          9.489          62.32          69.16         -8.686        -0.2502         -108.9          43.77          16.88          38.21          14.13
    0.6894              -47.69          9.491          62.32          69.15         -8.688         -0.256         -108.8          43.77          16.89          38.22          14.19
    0.7299              -47.68          9.492          62.32          69.15         -8.691        -0.2622         -108.8          43.77          16.91          38.23          14.25
    0.7705              -47.66          9.494          62.31          69.14         -8.694        -0.2691         -108.7          43.77          16.93          38.25          14.31
     0.811              -47.64          9.496          62.31          69.14         -8.697        -0.2766         -108.5          43.77          16.94          38.26          14.38
    0.8516              -47.62          9.498           62.3          69.13         -8.701        -0.2849         -108.4          43.77          16.97          38.28          14.46
    0.8921              -47.59          9.501          62.29          69.12         -8.705        -0.2941         -108.3          43.77          16.99           38.3          14.55
    0.9327              -47.57          9.503          62.29          69.12         -8.709        -0.3043         -108.1          43.77          17.02          38.32          14.64
    0.9732              -47.54          9.506          62.28          69.11         -8.714        -0.3156         -108.0          43.77          17.05          38.34          14.75
     1.014               -47.5           9.51          62.27           69.1         -8.719        -0.3282         -107.8          43.77          17.08          38.36          14.87
     1.054              -47.46          9.513          62.26          69.08         -8.725        -0.3423         -107.6          43.78          17.12          38.39           15.0
     1.095              -47.42          9.518          62.25          69.07         -8.732        -0.3581         -107.3          43.78          17.16          38.42          15.15
     1.135              -47.37          9.522          62.24          69.06          -8.74        -0.3761         -107.1          43.78          17.21          38.46          15.32
     1.176              -47.32          9.528          62.23          69.04         -8.748        -0.3965         -106.8          43.78          17.26           38.5          15.51
     1.217              -47.26          9.534          62.21          69.02         -8.758        -0.4197         -106.4          43.78          17.32          38.54          15.73
     1.257              -47.19          9.541          62.19           69.0          -8.77        -0.4464         -106.0          43.78          17.39           38.6          15.98
     1.298               -47.1          9.549          62.17          68.98         -8.783        -0.4772         -105.6          43.79          17.47          38.66          16.27
     1.338              -47.01          9.558          62.15          68.95         -8.798         -0.513         -105.0          43.79          17.57          38.73          16.61
     1.379               -46.9          9.569          62.12          68.91         -8.816        -0.5549         -104.4          43.79          17.68          38.81          17.01
     1.419              -46.77          9.582          62.09          68.88         -8.837        -0.6042         -103.7          43.79          17.81          38.91          17.47
      1.46              -46.61          9.598          62.05          68.83         -8.862        -0.6629         -102.8           43.8          17.96          39.02          18.03
       1.5              -46.42          9.616           62.0          68.77         -8.892        -0.7332         -101.8           43.8          18.15          39.16          18.69
     1.541              -46.19          9.639          61.94           68.7         -8.928        -0.8183         -100.5          43.81          18.37          39.33           19.5
     1.581              -45.92          9.666          61.87          68.62         -8.972        -0.9223         -98.95          43.82          18.64          39.53          20.48
     1.622              -45.57            9.7          61.79          68.52         -9.027         -1.051         -97.05          43.83          18.98          39.79          21.69
     1.663              -45.15          9.742          61.68          68.39         -9.095         -1.211         -94.67          43.84           19.4           40.1           23.2
     1.703              -44.61          9.796          61.54          68.23         -9.181         -1.412         -91.68          43.85          19.93           40.5           25.1
     1.744              -43.93          9.863          61.37          68.02          -9.29         -1.668         -87.87          43.87          20.61           41.0          27.52
     1.784              -43.05           9.95          61.15          67.76          -9.43         -1.996         -83.01          43.89          21.47          41.65          30.62
     1.825              -41.93          10.06          60.87          67.43          -9.61         -2.417         -76.76          43.92          22.58          42.48          34.59
     1.865               -40.5           10.2          60.51           67.0         -9.839         -2.954         -68.77          43.96          23.99          43.54          39.66
     1.906              -38.69          10.38          60.06          66.46         -10.13          -3.63         -58.74          44.01          25.77          44.87          46.04
     1.946               -36.5           10.6           59.5           65.8         -10.48         -4.454         -46.51          44.07          27.94          46.49          53.82
     1.987              -33.95          10.85          58.86          65.03         -10.88         -5.408         -32.33          44.13          30.45          48.37          62.83
     2.028              -31.19          11.12          58.17          64.21         -11.33         -6.442         -16.98          44.21          33.17          50.41          72.59
     2.068              -28.43           11.4          57.47          63.38         -11.77         -7.476          -1.63          44.28           35.9          52.45          82.35
     2.109              -25.89          11.65          56.83          62.62         -12.17          -8.43          12.55          44.35          38.41          54.33          91.36
     2.149              -23.69          11.86          56.28          61.96         -12.52         -9.254          24.78          44.41          40.58          55.95          99.14
